#!OML:ASF E:\Mandelcareful walks\Project 1\Capture day 1\Session 1\Subject1.ASF
:FULLY-SPECIFIED
:DEGREES
582
root -10.591 14.924 1.53045 -264.325 79.272 -281.942
lowerback 25.3919 1.66099 -2.71312
upperback 6.23894 1.6373 -4.38221
thorax -7.10772 1.04971 -3.80482
lowerneck -19.8639 17.7611 10.7233
upperneck 9.40925 25.8688 -22.9126
head 10.9599 10.844 -4.81284
rclavicle -6.36111e-015 1.19271e-014
rhumerus -11.1878 2.60922 -85.9053
rradius 79.1836
rwrist -15.2106
rhand -24.4682 -32.8252
rfingers 7.12502
rthumb 2.02521 -62.7953
lclavicle -6.36111e-015 1.19271e-014
lhumerus 8.0972 -16.581 77.2224
lradius 68.2092
lwrist 17.8283
lhand -25.7528 -15.5958
lfingers 7.12502
lthumb 0.78448 14.3825
rfemur -47.5883 -23.3581 9.28136
rtibia 68.9364
rfoot -33.4973 -16.1945
rtoes -4.05546
lfemur -57.2449 11.9158 -22.7415
ltibia 49.1461
lfoot -5.10906 -2.22691
ltoes -16.2902
583
root -10.5973 14.9117 1.55919 -261.73 79.2521 -279.376
lowerback 25.2901 1.56247 -2.52278
upperback 6.25674 1.5646 -4.43568
thorax -7.03423 1.01491 -3.94567
lowerneck -19.6166 17.8765 10.9347
upperneck 9.42664 25.9971 -22.9237
head 10.975 10.9232 -4.82603
rclavicle -1.55052e-014 7.95139e-015
rhumerus -11.1862 2.48363 -85.7632
rradius 78.7384
rwrist -15.1862
rhand -24.0804 -32.3165
rfingers 7.12502
rthumb 2.39968 -62.2827
lclavicle -1.55052e-014 7.95139e-015
lhumerus 8.01713 -17.3036 77.0004
lradius 67.9247
lwrist 17.4575
lhand -25.8562 -15.7015
lfingers 7.12502
lthumb 0.684642 14.2772
rfemur -47.6364 -23.7026 9.37101
rtibia 69.1148
rfoot -33.8946 -16.0642
rtoes -3.48032
lfemur -57.3584 11.5878 -22.714
ltibia 49.0426
lfoot -5.18306 -2.18251
ltoes -14.6759
584
root -10.5979 14.9129 1.59658 -260.889 79.2242 -278.412
lowerback 25.4045 1.64006 -2.60005
upperback 6.24371 1.63943 -4.46926
thorax -7.10307 1.05289 -3.96818
lowerneck -19.2226 17.9352 11.1613
upperneck 9.40048 26.033 -22.908
head 10.9297 10.9775 -4.86663
rclavicle 2.50469e-014 -1.19271e-014
rhumerus -11.2849 2.45439 -85.5692
rradius 78.2684
rwrist -15.3498
rhand -24.1754 -31.6964
rfingers 7.12502
rthumb 2.30798 -61.6636
lclavicle 2.50469e-014 -1.19271e-014
lhumerus 7.84187 -18.4026 76.7201
lradius 67.7601
lwrist 17.5704
lhand -26.3089 -15.4739
lfingers 7.12502
lthumb 0.247409 14.5057
rfemur -47.4304 -23.6357 9.39904
rtibia 69.1939
rfoot -34.2701 -16.0392
rtoes -2.9593
lfemur -57.1968 11.6489 -22.6861
ltibia 48.9768
lfoot -4.94661 -2.43489
ltoes -15.6523
585
root -10.6031 14.9087 1.61705 -260.056 79.183 -277.655
lowerback 25.346 1.6892 -2.56858
upperback 6.215 1.70812 -4.50211
thorax -7.10034 1.08466 -4.04216
lowerneck -19.079 17.9733 11.2827
upperneck 9.55341 26.0924 -22.8679
head 10.9786 11.0087 -4.86361
rclavicle 1.51076e-014 -6.20208e-014
rhumerus -11.5994 2.42356 -85.3105
rradius 78.3019
rwrist -15.5664
rhand -25.2564 -30.6993
rfingers 7.12502
rthumb 1.26394 -60.6753
lclavicle 1.51076e-014 -6.20208e-014
lhumerus 7.68358 -19.6302 76.4486
lradius 67.5597
lwrist 17.5993
lhand -26.4246 -15.5873
lfingers 7.12502
lthumb 0.135666 14.3924
rfemur -47.5575 -23.7029 9.46655
rtibia 69.2897
rfoot -34.2801 -16.1043
rtoes -2.82483
lfemur -57.3262 11.5953 -22.7141
ltibia 48.9974
lfoot -4.78378 -2.54555
ltoes -16.533
586
root -10.6067 14.8994 1.64157 -259.088 79.307 -276.703
lowerback 25.3402 1.72319 -2.52246
upperback 6.23812 1.77115 -4.43339
thorax -7.06989 1.11465 -4.01017
lowerneck -19.1624 18.0203 11.269
upperneck 9.8469 26.1765 -22.6817
head 11.0758 11.0295 -4.77455
rclavicle 7.95139e-016 1.35174e-014
rhumerus -11.9034 2.33462 -85.1274
rradius 78.449
rwrist -15.705
rhand -25.9124 -30.0749
rfingers 7.12502
rthumb 0.630329 -60.0537
lclavicle 7.95139e-016 1.35174e-014
lhumerus 7.57381 -20.9495 76.0126
lradius 67.4713
lwrist 17.4665
lhand -26.4912 -15.275
lfingers 7.12502
lthumb 0.0713369 14.7047
rfemur -47.6336 -23.8427 9.74095
rtibia 69.3765
rfoot -34.1834 -16.2162
rtoes -3.64301
lfemur -57.4347 11.5755 -22.5209
ltibia 49.0716
lfoot -4.88344 -2.54271
ltoes -15.7199
587
root -10.6066 14.893 1.66221 -258.137 79.5017 -275.774
lowerback 25.3171 1.76004 -2.41214
upperback 6.23349 1.85118 -4.34453
thorax -7.05989 1.15002 -3.99804
lowerneck -19.1137 17.9849 11.2601
upperneck 10.0174 26.1212 -22.5008
head 11.0829 11.0076 -4.73321
rclavicle 9.14409e-015 4.45278e-014
rhumerus -12.1804 2.22724 -84.9478
rradius 78.4259
rwrist -15.7579
rhand -25.7647 -31.2422
rfingers 7.12502
rthumb 0.773025 -61.2205
lclavicle 9.14409e-015 4.45278e-014
lhumerus 7.46623 -22.5951 75.3917
lradius 67.3745
lwrist 17.3674
lhand -26.6653 -14.6671
lfingers 7.12502
lthumb -0.0968654 15.3126
rfemur -47.6574 -23.8861 9.97868
rtibia 69.4366
rfoot -34.3723 -15.8377
rtoes -2.78384
lfemur -57.5699 11.6086 -22.2957
ltibia 49.2121
lfoot -5.01711 -2.52688
ltoes -14.3624
588
root -10.6025 14.892 1.67337 -257.36 79.6421 -274.948
lowerback 25.3876 1.78425 -2.25725
upperback 6.24049 1.92196 -4.29964
thorax -7.08148 1.1818 -4.06234
lowerneck -19.1824 17.9468 11.2426
upperneck 10.2997 26.0751 -22.2873
head 11.1459 10.9743 -4.67005
rclavicle -2.38542e-015 -4.45278e-014
rhumerus -12.451 2.17931 -84.7308
rradius 78.3872
rwrist -15.7222
rhand -27.5674 -31.5266
rfingers 7.12502
rthumb -0.968114 -61.5041
lclavicle -2.38542e-015 -4.45278e-014
lhumerus 7.36348 -24.5131 74.6886
lradius 67.1637
lwrist 17.1583
lhand -26.7758 -13.9569
lfingers 7.12502
lthumb -0.203528 16.0228
rfemur -47.5584 -23.8953 10.069
rtibia 69.436
rfoot -34.555 -15.5505
rtoes -1.79963
lfemur -57.6137 11.7084 -22.2047
ltibia 49.3901
lfoot -5.12438 -2.41501
ltoes -13.2691
589
root -10.5966 14.8888 1.67699 -256.71 79.7644 -274.213
lowerback 25.6512 1.76394 -2.09475
upperback 6.18362 1.92178 -4.27313
thorax -7.27373 1.17664 -4.14322
lowerneck -19.2262 17.933 11.1936
upperneck 10.4294 26.0572 -22.1461
head 11.1636 10.9618 -4.62005
rclavicle -2.78299e-014 4.29375e-014
rhumerus -12.8179 2.21099 -84.575
rradius 78.4654
rwrist -15.6748
rhand -26.6815 -31.7568
rfingers 7.12502
rthumb -0.112476 -61.7365
lclavicle -2.78299e-014 4.29375e-014
lhumerus 7.17754 -26.5192 73.9314
lradius 66.9655
lwrist 16.8607
lhand -26.4646 -13.4767
lfingers 7.12502
lthumb 0.0970356 16.503
rfemur -47.516 -24.0673 10.2977
rtibia 69.4455
rfoot -34.2156 -16.3048
rtoes -4.2138
lfemur -57.6365 11.8059 -22.129
ltibia 49.6001
lfoot -5.24194 -2.02262
ltoes -13.66
590
root -10.5876 14.8792 1.67019 -256.686 79.8494 -274.219
lowerback 25.735 1.7356 -2.02894
upperback 6.13089 1.8918 -4.27344
thorax -7.37442 1.15842 -4.179
lowerneck -19.4776 17.9033 11.0576
upperneck 10.7107 26.0038 -21.8137
head 11.2184 10.9171 -4.49249
rclavicle -2.0276e-014 -4.85035e-014
rhumerus -12.9927 2.38228 -84.5062
rradius 78.3815
rwrist -15.7275
rhand -25.913 -33.4542
rfingers 7.12502
rthumb 0.629756 -63.433
lclavicle -2.0276e-014 -4.85035e-014
lhumerus 7.08039 -28.7465 72.9959
lradius 66.8623
lwrist 17.3166
lhand -25.9686 -13.0841
lfingers 7.12502
lthumb 0.576075 16.8949
rfemur -47.6241 -24.2003 10.4734
rtibia 69.5219
rfoot -33.978 -16.7172
rtoes -5.78963
lfemur -57.8073 11.9313 -22.1057
ltibia 49.8468
lfoot -5.51665 -1.5471
ltoes -15.0562
591
root -10.5732 14.8656 1.65105 -257.375 79.8216 -275
lowerback 25.4549 1.73442 -2.12238
upperback 6.2544 1.89085 -4.28626
thorax -7.09829 1.16529 -4.11848
lowerneck -19.8468 17.7785 10.7932
upperneck 10.8592 25.801 -21.4608
head 11.2004 10.8062 -4.37274
rclavicle -3.81667e-014 1.82882e-014
rhumerus -12.8394 2.57929 -84.4412
rradius 78.1956
rwrist -15.7787
rhand -26.7342 -34.5785
rfingers 7.12502
rthumb -0.163323 -64.5582
lclavicle -3.81667e-014 1.82882e-014
lhumerus 7.11068 -30.7805 72.026
lradius 66.6219
lwrist 17.0513
lhand -25.2661 -13.0856
lfingers 7.12502
lthumb 1.25461 16.8905
rfemur -47.7667 -24.2843 10.377
rtibia 69.6436
rfoot -34.0094 -16.4409
rtoes -5.56415
lfemur -58.0507 12.1431 -22.2961
ltibia 50.1521
lfoot -5.95035 -1.40914
ltoes -15.9971
592
root -10.5549 14.8514 1.62419 -258.345 79.7035 -275.996
lowerback 25.3854 1.78081 -2.27759
upperback 6.25548 1.913 -4.299
thorax -7.0648 1.17783 -4.04634
lowerneck -19.8434 17.5136 10.6129
upperneck 10.9392 25.4121 -21.1855
head 11.0892 10.6412 -4.36118
rclavicle 2.06736e-014 -6.36111e-015
rhumerus -13.0427 2.67528 -84.3422
rradius 78.1313
rwrist -15.7096
rhand -25.3755 -31.4416
rfingers 7.12502
rthumb 1.14889 -61.4182
lclavicle 2.06736e-014 -6.36111e-015
lhumerus 6.65651 -33.0738 71.2971
lradius 66.567
lwrist 16.5449
lhand -25.0091 -12.9008
lfingers 7.12502
lthumb 1.50279 17.0736
rfemur -47.8298 -24.4162 10.1203
rtibia 69.7377
rfoot -33.9012 -16.2888
rtoes -5.62863
lfemur -58.2153 12.3484 -22.598
ltibia 50.5244
lfoot -6.5639 -1.44804
ltoes -16.0507
593
root -10.5351 14.8405 1.59132 -259.356 79.6831 -276.966
lowerback 25.667 1.81514 -2.27162
upperback 6.07719 1.92157 -4.336
thorax -7.40284 1.17322 -4.11697
lowerneck -19.8689 17.1618 10.4288
upperneck 11.3658 24.9038 -20.6359
head 11.0414 10.4138 -4.28633
rclavicle 1.19271e-014 4.21423e-014
rhumerus -13.5536 2.73695 -84.2772
rradius 78.0992
rwrist -15.6424
rhand -24.8832 -30.3937
rfingers 7.12502
rthumb 1.62439 -60.3673
lclavicle 1.19271e-014 4.21423e-014
lhumerus 5.91314 -35.8307 70.5611
lradius 66.6314
lwrist 16.2772
lhand -25.2561 -12.747
lfingers 7.12502
lthumb 1.2642 17.229
rfemur -47.7523 -24.4553 9.90054
rtibia 69.7636
rfoot -33.8461 -16.0697
rtoes -5.48199
lfemur -58.2909 12.4288 -22.6681
ltibia 50.9793
lfoot -7.23654 -1.31075
ltoes -15.5368
594
root -10.5134 14.8292 1.55482 -260.409 79.7302 -277.868
lowerback 25.8778 1.79992 -2.29726
upperback 6.12806 1.8944 -4.32715
thorax -7.45447 1.16308 -4.09332
lowerneck -20.416 16.747 9.84084
upperneck 11.795 24.3017 -19.8005
head 10.9748 10.1194 -4.05171
rclavicle 4.57205e-014 -5.1684e-014
rhumerus -13.5247 2.93701 -84.1721
rradius 77.9296
rwrist -15.6993
rhand -21.0798 -32.2606
rfingers 7.12502
rthumb 5.29727 -62.1744
lclavicle 4.57205e-014 -5.1684e-014
lhumerus 5.82449 -38.6128 69.4243
lradius 66.5115
lwrist 16.2166
lhand -23.0976 -11.2128
lfingers 7.12502
lthumb 3.3488 18.7407
rfemur -47.5025 -24.3439 9.65345
rtibia 69.6974
rfoot -33.6816 -16.1622
rtoes -6.18328
lfemur -58.2699 12.5293 -22.6335
ltibia 51.5091
lfoot -7.71871 -1.27168
ltoes -15.2843
595
root -10.4918 14.8123 1.51221 -260.901 79.7405 -278.279
lowerback 25.7133 1.74585 -2.49673
upperback 6.37538 1.82125 -4.19245
thorax -7.11007 1.14118 -3.78603
lowerneck -20.9663 16.1692 9.15361
upperneck 11.7889 23.4761 -19.2003
head 10.7578 9.73683 -3.93086
rclavicle -1.31198e-014 3.65764e-014
rhumerus -12.9907 3.43034 -83.8784
rradius 77.5412
rwrist -15.9071
rhand -25.4447 -37.0908
rfingers 7.12502
rthumb 1.08209 -67.0678
lclavicle -1.31198e-014 3.65764e-014
lhumerus 6.30377 -41.3135 68.1136
lradius 66.2527
lwrist 16.3325
lhand -22.7431 -11.2997
lfingers 7.12502
lthumb 3.69123 18.6481
rfemur -47.3303 -24.3186 9.37874
rtibia 69.6518
rfoot -33.4005 -16.4757
rtoes -7.2349
lfemur -58.3965 12.5773 -22.7203
ltibia 52.0903
lfoot -8.05109 -1.40743
ltoes -15.3629
596
root -10.4692 14.7957 1.45818 -261.179 79.7783 -278.64
lowerback 25.8672 1.63385 -2.54896
upperback 6.22994 1.64232 -4.1169
thorax -7.36123 1.04878 -3.62967
lowerneck -22.0571 15.4292 8.34025
upperneck 12.5963 22.4714 -18.0547
head 10.8147 9.22065 -3.61631
rclavicle -1.98785e-015 -3.1408e-014
rhumerus -13.6961 3.63498 -83.9116
rradius 78.1738
rwrist -15.8915
rhand -25.2129 -35.385
rfingers 7.12502
rthumb 1.30597 -65.3607
lclavicle -1.98785e-015 -3.1408e-014
lhumerus 5.98617 -44.2552 67.1825
lradius 66.1896
lwrist 16.2939
lhand -22.5854 -11.1337
lfingers 7.12502
lthumb 3.84352 18.8114
rfemur -47.3158 -24.4053 9.17543
rtibia 69.7778
rfoot -33.5411 -16.134
rtoes -6.57572
lfemur -58.7166 12.4562 -22.786
ltibia 52.7013
lfoot -8.38523 -1.47983
ltoes -14.9888
